<svg width="12" height="24" viewBox="0 0 12 24" fill="none" xmlns="http://www.w3.org/2000/svg">
<path d="M7.62653e-05 22.5004C0.000118236 22.3033 0.0389986 22.1082 0.114496 21.9261C0.189994 21.7441 0.300629 21.5787 0.440076 21.4394L8.11107 13.7684C8.34328 13.5362 8.52749 13.2606 8.65317 12.9572C8.77885 12.6539 8.84353 12.3287 8.84353 12.0004C8.84353 11.672 8.77885 11.3469 8.65317 11.0435C8.52749 10.7402 8.34328 10.4645 8.11107 10.2324L0.449076 2.57039C0.175839 2.28748 0.0246476 1.90858 0.0280656 1.51529C0.0314826 1.12199 0.189237 0.745772 0.467348 0.46766C0.745461 0.189548 1.12168 0.0317942 1.51497 0.0283766C1.90827 0.024959 2.28717 0.176151 2.57007 0.449388L10.2321 8.11139C11.2622 9.14348 11.8408 10.5421 11.8408 12.0004C11.8408 13.4586 11.2622 14.8573 10.2321 15.8894L2.56007 23.5614C2.35024 23.771 2.08299 23.9136 1.7921 23.9714C1.50121 24.0291 1.19973 23.9993 0.925767 23.8858C0.651799 23.7722 0.41764 23.58 0.252875 23.3334C0.0881118 23.0868 0.000139195 22.797 7.62653e-05 22.5004Z" fill="white"/>
</svg>
