<svg width="12" height="24" viewBox="0 0 12 24" fill="none" xmlns="http://www.w3.org/2000/svg">
<path d="M11.9999 1.49961C11.9999 1.6967 11.961 1.89184 11.8855 2.0739C11.81 2.25595 11.6994 2.42134 11.5599 2.56061L3.88893 10.2316C3.65672 10.4638 3.47251 10.7394 3.34683 11.0428C3.22115 11.3461 3.15647 11.6713 3.15647 11.9996C3.15647 12.328 3.22115 12.6531 3.34683 12.9565C3.47251 13.2598 3.65672 13.5355 3.88893 13.7676L11.5509 21.4296C11.8242 21.7125 11.9754 22.0914 11.9719 22.4847C11.9685 22.878 11.8108 23.2542 11.5327 23.5323C11.2545 23.8105 10.8783 23.9682 10.485 23.9716C10.0917 23.975 9.71283 23.8238 9.42993 23.5506L1.76794 15.8886C0.737763 14.8565 0.159179 13.4579 0.159179 11.9996C0.159179 10.5414 0.737763 9.1427 1.76794 8.11061L9.43993 0.438612C9.64976 0.22904 9.91701 0.08637 10.2079 0.0286327C10.4988 -0.0291047 10.8003 0.000684273 11.0742 0.114231C11.3482 0.227777 11.5824 0.419988 11.7471 0.666572C11.9119 0.913156 11.9999 1.20305 11.9999 1.49961Z" fill="white"/>
</svg>
