<svg width="13" height="14" viewBox="0 0 13 14" fill="none" xmlns="http://www.w3.org/2000/svg">
<path d="M8.62132 6.92977L12.5003 3.04677C12.7522 2.76053 12.8856 2.38913 12.8734 2.00807C12.8612 1.627 12.7044 1.26487 12.4348 0.995274C12.1652 0.725681 11.8031 0.568864 11.422 0.556698C11.041 0.544531 10.6696 0.677929 10.3833 0.929775L6.50032 4.80877L2.61032 0.917775C2.47099 0.778442 2.30558 0.667918 2.12353 0.592512C1.94148 0.517105 1.74637 0.478294 1.54932 0.478294C1.35228 0.478294 1.15716 0.517105 0.975112 0.592512C0.793065 0.667918 0.627654 0.778442 0.488321 0.917775C0.348988 1.05711 0.238464 1.22252 0.163058 1.40457C0.0876517 1.58661 0.0488407 1.78173 0.0488407 1.97877C0.0488407 2.17582 0.0876517 2.37094 0.163058 2.55298C0.238464 2.73503 0.348988 2.90044 0.488321 3.03977L4.37932 6.92977L0.500321 10.8118C0.348194 10.9478 0.225411 11.1134 0.139485 11.2984C0.0535582 11.4835 0.0062954 11.6842 0.000587117 11.8881C-0.00512117 12.0921 0.0308452 12.2951 0.106286 12.4847C0.181727 12.6743 0.295056 12.8465 0.43934 12.9908C0.583623 13.135 0.755828 13.2484 0.945417 13.3238C1.13501 13.3993 1.33799 13.4352 1.54196 13.4295C1.74593 13.4238 1.94659 13.3765 2.13166 13.2906C2.31674 13.2047 2.48233 13.0819 2.61832 12.9298L6.50032 9.05077L10.3783 12.9298C10.6597 13.2112 11.0414 13.3693 11.4393 13.3693C11.8373 13.3693 12.2189 13.2112 12.5003 12.9298C12.7817 12.6484 12.9398 12.2667 12.9398 11.8688C12.9398 11.4708 12.7817 11.0892 12.5003 10.8078L8.62132 6.92977Z" fill="black"/>
</svg>
