<svg width="14" height="8" viewBox="0 0 14 8" fill="none" xmlns="http://www.w3.org/2000/svg">
<path d="M6.29018 2.59986C6.38315 2.50613 6.49375 2.43174 6.61561 2.38097C6.73747 2.3302 6.86817 2.30406 7.00018 2.30406C7.13219 2.30406 7.2629 2.3302 7.38476 2.38097C7.50662 2.43174 7.61722 2.50613 7.71018 2.59986L12.2902 7.18986C12.3831 7.28359 12.4937 7.35798 12.6156 7.40875C12.7375 7.45952 12.8682 7.48566 13.0002 7.48566C13.1322 7.48566 13.2629 7.45952 13.3848 7.40875C13.5066 7.35798 13.6172 7.28359 13.7102 7.18986C13.8964 7.0025 14.001 6.74905 14.001 6.48486C14.001 6.22067 13.8964 5.96722 13.7102 5.77986L9.12018 1.18986C8.55768 0.628057 7.79519 0.3125 7.00018 0.3125C6.20518 0.3125 5.44268 0.628057 4.88018 1.18986L0.290183 5.77986C0.105439 5.96612 0.0012872 6.21752 0.000181882 6.47986C-0.000579156 6.61147 0.0246455 6.74193 0.0744102 6.86377C0.124175 6.9856 0.197502 7.09642 0.290183 7.18986C0.383146 7.28359 0.493746 7.35798 0.615605 7.40875C0.737465 7.45952 0.86817 7.48566 1.00018 7.48566C1.13219 7.48566 1.2629 7.45952 1.38476 7.40875C1.50662 7.35798 1.61722 7.28359 1.71018 7.18986L6.29018 2.59986Z" fill="url(#paint0_linear_486_2109)"/>
<defs>
<linearGradient id="paint0_linear_486_2109" x1="14.001" y1="3.89908" x2="0.000165783" y2="3.89908" gradientUnits="userSpaceOnUse">
<stop/>
<stop offset="1" stop-opacity="0.6"/>
</linearGradient>
</defs>
</svg>
