<svg width="25" height="24" viewBox="0 0 25 24" fill="none" xmlns="http://www.w3.org/2000/svg">
<g clip-path="url(#clip0_227_381)">
<path d="M10.5682 20C9.7548 19.9992 8.97491 19.6757 8.39972 19.1005C7.82453 18.5253 7.50104 17.7454 7.50024 16.932C7.50024 16.6668 7.39489 16.4124 7.20735 16.2249C7.01981 16.0374 6.76546 15.932 6.50024 15.932C6.23503 15.932 5.98067 16.0374 5.79314 16.2249C5.6056 16.4124 5.50024 16.6668 5.50024 16.932V17C5.50024 17.019 5.50024 17.036 5.50024 17.055C5.53362 18.3773 6.08211 19.6342 7.02881 20.5579C7.97551 21.4817 9.24555 21.9991 10.5682 22H11.5002V23C11.5002 23.2652 11.6056 23.5196 11.7931 23.7071C11.9807 23.8946 12.235 24 12.5002 24C12.7655 24 13.0198 23.8946 13.2074 23.7071C13.3949 23.5196 13.5002 23.2652 13.5002 23V22H14.4322C15.6349 21.9987 16.798 21.5698 17.7134 20.7898C18.6289 20.0099 19.2372 18.9298 19.4296 17.7426C19.6219 16.5554 19.3858 15.3385 18.7635 14.3093C18.1411 13.2802 17.173 12.506 16.0322 12.125L13.5002 11.28V4H14.4322C15.2457 4.00079 16.0256 4.32428 16.6008 4.89947C17.176 5.47466 17.4994 6.25456 17.5002 7.068C17.5002 7.33322 17.6056 7.58757 17.7931 7.77511C17.9807 7.96264 18.235 8.068 18.5002 8.068C18.7655 8.068 19.0198 7.96264 19.2074 7.77511C19.3949 7.58757 19.5002 7.33322 19.5002 7.068V7C19.5002 6.981 19.5002 6.964 19.5002 6.945C19.4669 5.62273 18.9184 4.36578 17.9717 3.44206C17.025 2.51833 15.7549 2.00088 14.4322 2H13.5002V1C13.5002 0.734784 13.3949 0.48043 13.2074 0.292893C13.0198 0.105357 12.7655 0 12.5002 0C12.235 0 11.9807 0.105357 11.7931 0.292893C11.6056 0.48043 11.5002 0.734784 11.5002 1V2H10.5682C9.36556 2.00128 8.20253 2.43023 7.28704 3.21018C6.37154 3.99012 5.76325 5.07022 5.5709 6.25742C5.37854 7.44462 5.61465 8.66154 6.23704 9.69066C6.85942 10.7198 7.8275 11.494 8.96824 11.875L11.5002 12.72V20H10.5682ZM13.5002 13.387L15.4002 14.021C16.0915 14.2511 16.6783 14.7196 17.0557 15.3428C17.4331 15.966 17.5764 16.7031 17.4599 17.4223C17.3435 18.1415 16.9749 18.7958 16.4202 19.2681C15.8655 19.7403 15.1608 19.9998 14.4322 20H13.5002V13.387ZM9.60024 9.979C8.90898 9.74893 8.32215 9.28037 7.94478 8.65718C7.5674 8.034 7.42411 7.29685 7.54055 6.57768C7.65698 5.8585 8.02554 5.20422 8.58028 4.73194C9.13501 4.25966 9.8397 4.00021 10.5682 4H11.5002V10.613L9.60024 9.979Z" fill="url(#paint0_linear_227_381)"/>
</g>
<defs>
<linearGradient id="paint0_linear_227_381" x1="12.5002" y1="0" x2="12.5002" y2="24" gradientUnits="userSpaceOnUse">
<stop stop-color="white"/>
<stop offset="1" stop-color="white" stop-opacity="0"/>
</linearGradient>
<clipPath id="clip0_227_381">
<rect width="24" height="24" fill="white" transform="translate(0.5)"/>
</clipPath>
</defs>
</svg>
