<svg width="25" height="24" viewBox="0 0 25 24" fill="none" xmlns="http://www.w3.org/2000/svg">
<g clip-path="url(#clip0_44_265)">
<path d="M23.851 0.648301C23.5559 0.349986 23.1812 0.142825 22.7716 0.0515144C22.3621 -0.0397965 21.9349 -0.0114063 21.541 0.133301L21.325 0.210301C16.4881 1.78355 12.0845 4.4628 8.464 8.0353C7.55539 8.96793 6.72867 9.97698 5.993 11.0513C4.593 13.0513 4.327 15.2403 6.047 16.9613L6.086 16.9993L3.793 19.2923C3.60553 19.4798 3.50021 19.7341 3.50021 19.9993C3.50021 20.2645 3.60553 20.5188 3.793 20.7063C3.98053 20.8938 4.23484 20.9991 4.5 20.9991C4.76516 20.9991 5.01947 20.8938 5.207 20.7063L7.5 18.4133L7.538 18.4523C9.259 20.1723 11.453 19.9043 13.448 18.5063C14.5223 17.7706 15.5314 16.9439 16.464 16.0353C20.0366 12.4145 22.7159 8.01059 24.289 3.1733L24.366 2.9573C24.5107 2.56359 24.5392 2.13654 24.4478 1.72711C24.3565 1.31769 24.1493 0.943191 23.851 0.648301ZM11.5 13.9993C11.3022 13.9993 11.1089 13.9407 10.9444 13.8308C10.78 13.7209 10.6518 13.5647 10.5761 13.382C10.5004 13.1993 10.4806 12.9982 10.5192 12.8042C10.5578 12.6102 10.653 12.432 10.7929 12.2922C10.9327 12.1523 11.1109 12.0571 11.3049 12.0185C11.4989 11.9799 11.7 11.9997 11.8827 12.0754C12.0654 12.1511 12.2216 12.2793 12.3315 12.4437C12.4414 12.6082 12.5 12.8015 12.5 12.9993C12.5 13.2645 12.3946 13.5189 12.2071 13.7064C12.0196 13.8939 11.7652 13.9993 11.5 13.9993ZM14.5 10.9993C14.3022 10.9993 14.1089 10.9407 13.9444 10.8308C13.78 10.7209 13.6518 10.5647 13.5761 10.382C13.5004 10.1993 13.4806 9.99819 13.5192 9.80421C13.5578 9.61023 13.653 9.43205 13.7929 9.2922C13.9327 9.15234 14.1109 9.0571 14.3049 9.01852C14.4989 8.97993 14.7 8.99973 14.8827 9.07542C15.0654 9.15111 15.2216 9.27928 15.3315 9.44373C15.4414 9.60818 15.5 9.80152 15.5 9.9993C15.5 10.2645 15.3946 10.5189 15.2071 10.7064C15.0196 10.8939 14.7652 10.9993 14.5 10.9993ZM17.5 7.9993C17.3022 7.9993 17.1089 7.94065 16.9444 7.83077C16.78 7.72089 16.6518 7.56471 16.5761 7.38199C16.5004 7.19926 16.4806 6.99819 16.5192 6.80421C16.5578 6.61023 16.653 6.43205 16.7929 6.2922C16.9327 6.15234 17.1109 6.0571 17.3049 6.01852C17.4989 5.97993 17.7 5.99973 17.8827 6.07542C18.0654 6.15111 18.2216 6.27928 18.3315 6.44373C18.4414 6.60818 18.5 6.80152 18.5 6.9993C18.5 7.26452 18.3946 7.51887 18.2071 7.70641C18.0196 7.89394 17.7652 7.9993 17.5 7.9993ZM2.863 13.0373C2.55273 13.0374 2.24548 12.9764 1.95879 12.8578C1.67211 12.7392 1.41161 12.5652 1.19217 12.3458C0.972729 12.1265 0.798656 11.8661 0.679892 11.5794C0.561128 11.2928 0.5 10.9856 0.5 10.6753C0.502417 10.0593 0.740336 9.46754 1.165 9.0213C2.87335 7.26515 5.17884 6.21448 7.625 6.0773C7.434 6.2593 7.239 6.4323 7.05 6.6213C6.05966 7.63496 5.15803 8.73164 4.355 9.8993C3.67969 10.8349 3.20945 11.9025 2.975 13.0323L2.863 13.0373ZM11.5 21.5243C12.6299 21.2903 13.6976 20.82 14.633 20.1443C15.8026 19.3417 16.901 18.4401 17.916 17.4493C18.106 17.2603 18.278 17.0653 18.461 16.8743C18.323 19.3205 17.272 21.6258 15.516 23.3343C15.0702 23.759 14.4787 23.9969 13.863 23.9993C13.2363 23.9993 12.6353 23.7503 12.1921 23.3072C11.749 22.864 11.5 22.263 11.5 21.6363V21.5243Z" fill="url(#paint0_linear_44_265)"/>
</g>
<defs>
<linearGradient id="paint0_linear_44_265" x1="12.5001" y1="-0.000915527" x2="12.5001" y2="23.9993" gradientUnits="userSpaceOnUse">
<stop stop-color="white"/>
<stop offset="1" stop-color="white" stop-opacity="0"/>
</linearGradient>
<clipPath id="clip0_44_265">
<rect width="24" height="24" fill="white" transform="translate(0.5)"/>
</clipPath>
</defs>
</svg>
