<svg width="25" height="24" viewBox="0 0 25 24" fill="none" xmlns="http://www.w3.org/2000/svg">
<g clip-path="url(#clip0_44_272)">
<path d="M19.4508 23.0008H19.4178C18.9068 22.9928 18.4208 22.7758 18.0738 22.4008L16.1558 20.5198C15.7718 20.1228 15.7808 19.4898 16.1778 19.1058C16.1788 19.1048 16.1798 19.1038 16.1808 19.1028C16.5778 18.7218 17.2078 18.7328 17.5908 19.1268L19.4518 20.9498L22.7928 17.6088C23.1828 17.2188 23.8168 17.2188 24.2068 17.6088C24.5968 17.9988 24.5968 18.6328 24.2068 19.0228L20.7858 22.4438C20.4338 22.8008 19.9528 23.0018 19.4508 23.0008Z" fill="url(#paint0_linear_44_272)"/>
<path d="M14.5352 20.0149C14.5312 16.7179 17.2002 14.0419 20.4962 14.0369C21.7792 14.0349 23.0292 14.4469 24.0592 15.2119C25.8322 8.82691 22.0932 2.21391 15.7092 0.440912C9.32523 -1.33209 2.71323 2.40591 0.940231 8.79091C-0.832769 15.1759 2.90623 21.7899 9.29023 23.5629C11.3902 24.1459 13.6092 24.1459 15.7092 23.5629C14.9472 22.5369 14.5352 21.2929 14.5352 20.0149ZM13.5002 12.0219C13.5002 12.2879 13.3942 12.5419 13.2062 12.7299L10.2012 15.7359C9.80323 16.1199 9.16923 16.1089 8.78523 15.7109C8.41023 15.3229 8.41023 14.7069 8.78523 14.3189L11.4972 11.6069V7.01291C11.4972 6.45991 11.9452 6.01091 12.4992 6.01091C13.0522 6.01091 13.5002 6.45991 13.5002 7.01291V12.0219Z" fill="url(#paint1_linear_44_272)"/>
</g>
<defs>
<linearGradient id="paint0_linear_44_272" x1="20.1865" y1="17.3163" x2="20.1865" y2="23.0008" gradientUnits="userSpaceOnUse">
<stop stop-color="white"/>
<stop offset="1" stop-color="white" stop-opacity="0"/>
</linearGradient>
<linearGradient id="paint1_linear_44_272" x1="12.4997" y1="0.000366211" x2="12.4997" y2="24.0002" gradientUnits="userSpaceOnUse">
<stop stop-color="white"/>
<stop offset="1" stop-color="white" stop-opacity="0"/>
</linearGradient>
<clipPath id="clip0_44_272">
<rect width="24" height="24" fill="white" transform="translate(0.5)"/>
</clipPath>
</defs>
</svg>
