<svg width="25" height="22" viewBox="0 0 25 22" fill="none" xmlns="http://www.w3.org/2000/svg">
<g clip-path="url(#clip0_176_120)">
<path d="M18.9268 15.3181C18.6456 15.0721 18.2641 14.9338 17.8663 14.9338C17.4686 14.9338 17.0871 15.0721 16.8058 15.3181L14.0248 17.7497L13.9998 1.8125C13.9998 1.4644 13.8418 1.13056 13.5605 0.884422C13.2792 0.638281 12.8977 0.5 12.4998 0.5V0.5C12.102 0.5 11.7205 0.638281 11.4392 0.884422C11.1579 1.13056 10.9998 1.4644 10.9998 1.8125L11.0228 17.7375L8.25984 15.3181C7.97694 15.079 7.59803 14.9467 7.20474 14.9497C6.81144 14.9527 6.43523 15.0908 6.15711 15.3341C5.879 15.5775 5.72125 15.9066 5.71783 16.2508C5.71441 16.5949 5.8656 16.9265 6.13884 17.174L10.0578 20.6031C10.7142 21.1772 11.6043 21.4998 12.5323 21.4998C13.4604 21.4998 14.3505 21.1772 15.0068 20.6031L18.9268 17.174C19.208 16.9279 19.366 16.5941 19.366 16.2461C19.366 15.898 19.208 15.5643 18.9268 15.3181Z" fill="#343434" fill-opacity="0.7"/>
</g>
<defs>
<clipPath id="clip0_176_120">
<rect width="24" height="21" fill="white" transform="translate(0.5 0.5)"/>
</clipPath>
</defs>
</svg>
