<svg width="14" height="14" viewBox="0 0 14 14" fill="none" xmlns="http://www.w3.org/2000/svg">
<g clip-path="url(#clip0_36_686)">
<path d="M12.8333 9.91667C12.8323 9.13983 12.6097 8.37939 12.1917 7.72462C11.7736 7.06985 11.1775 6.54792 10.4732 6.22009C10.8556 5.60225 11.0659 4.89338 11.0823 4.16693C11.0987 3.44047 10.9205 2.72285 10.5662 2.08842C10.212 1.45398 9.69452 0.925807 9.06748 0.558611C8.44045 0.191414 7.72664 -0.00144659 7 8.16937e-06H2.91667C2.60725 8.16937e-06 2.3105 0.122924 2.09171 0.341717C1.87292 0.560509 1.75 0.857256 1.75 1.16667V12.8333C1.75 13.1428 1.87292 13.4395 2.09171 13.6583C2.3105 13.8771 2.60725 14 2.91667 14H8.75C9.83259 13.9988 10.8705 13.5682 11.636 12.8027C12.4015 12.0372 12.8321 10.9993 12.8333 9.91667V9.91667ZM4.08333 2.33334H7C7.46413 2.33334 7.90925 2.51772 8.23744 2.8459C8.56563 3.17409 8.75 3.61921 8.75 4.08334C8.75 4.54747 8.56563 4.99259 8.23744 5.32078C7.90925 5.64897 7.46413 5.83334 7 5.83334H4.08333V2.33334ZM8.75 11.6667H4.08333V8.16667H8.75C9.21413 8.16667 9.65925 8.35105 9.98744 8.67924C10.3156 9.00743 10.5 9.45255 10.5 9.91667C10.5 10.3808 10.3156 10.8259 9.98744 11.1541C9.65925 11.4823 9.21413 11.6667 8.75 11.6667V11.6667Z" fill="url(#paint0_linear_36_686)"/>
</g>
<defs>
<linearGradient id="paint0_linear_36_686" x1="1.75" y1="3.20833" x2="10.5" y2="14" gradientUnits="userSpaceOnUse">
<stop stop-color="white"/>
<stop offset="1" stop-color="white" stop-opacity="0"/>
</linearGradient>
<clipPath id="clip0_36_686">
<rect width="14" height="14" fill="white"/>
</clipPath>
</defs>
</svg>
