<svg width="35" height="35" viewBox="0 0 35 35" fill="none" xmlns="http://www.w3.org/2000/svg">
<g clip-path="url(#clip0_186_1161)">
<path d="M0.929914 12.262C0.624654 11.6958 0.483231 11.0557 0.521518 10.4136C0.559804 9.77151 0.776285 9.15277 1.14666 8.62685C1.75195 7.73877 2.56254 7.00981 3.50966 6.50185L14.1361 0.971185C15.1805 0.428079 16.3404 0.144531 17.5177 0.144531C18.6949 0.144531 19.8548 0.428079 20.8992 0.971185L31.5242 6.5061C32.4714 7.01406 33.282 7.74302 33.8872 8.6311C34.2576 9.15702 34.4741 9.77576 34.5124 10.4179C34.5507 11.06 34.4093 11.7001 34.104 12.2663C33.7754 12.8879 33.2825 13.4075 32.679 13.7685C32.0755 14.1294 31.3845 14.3179 30.6813 14.3134H4.354C3.65014 14.3177 2.95859 14.1288 2.35478 13.767C1.75097 13.4053 1.2581 12.8847 0.929914 12.262ZM33.101 31.3134C33.101 30.5619 32.8025 29.8412 32.2711 29.3099C31.7398 28.7785 31.0191 28.48 30.2677 28.48V17.1467H27.4343V28.48H23.1843V17.1467H20.351V28.48H14.6843V17.1467H11.851V28.48H7.601V17.1467H4.76766V28.48C4.01622 28.48 3.29555 28.7785 2.76419 29.3099C2.23284 29.8412 1.93433 30.5619 1.93433 31.3134C1.55861 31.3134 1.19827 31.4626 0.932596 31.7283C0.666919 31.994 0.517664 32.3543 0.517664 32.73C0.517664 33.1057 0.666919 33.4661 0.932596 33.7318C1.19827 33.9974 1.55861 34.1467 1.93433 34.1467H33.101C33.4767 34.1467 33.8371 33.9974 34.1027 33.7318C34.3684 33.4661 34.5177 33.1057 34.5177 32.73C34.5177 32.3543 34.3684 31.994 34.1027 31.7283C33.8371 31.4626 33.4767 31.3134 33.101 31.3134Z" fill="url(#paint0_linear_186_1161)"/>
</g>
<defs>
<linearGradient id="paint0_linear_186_1161" x1="17.517" y1="0.144531" x2="17.517" y2="34.1467" gradientUnits="userSpaceOnUse">
<stop stop-color="white"/>
<stop offset="1" stop-color="white" stop-opacity="0"/>
</linearGradient>
<clipPath id="clip0_186_1161">
<rect width="34" height="34" fill="white" transform="translate(0.517578 0.146729)"/>
</clipPath>
</defs>
</svg>
