<svg width="35" height="34" viewBox="0 0 35 34" fill="none" xmlns="http://www.w3.org/2000/svg">
<g clip-path="url(#clip0_176_925)">
<path d="M34.5858 12.0138V28.3338C34.5858 28.7095 34.4366 29.0699 34.1709 29.3355C33.9052 29.6012 33.5449 29.7505 33.1691 29.7505C32.7934 29.7505 32.4331 29.6012 32.1674 29.3355C31.9017 29.0699 31.7525 28.7095 31.7525 28.3338V16.6491L21.2691 21.6585C20.1638 22.3109 18.9019 22.6507 17.6184 22.6416C16.2724 22.6437 14.9508 22.282 13.7934 21.5947L3.3384 16.618C2.51656 16.176 1.82796 15.5222 1.34404 14.7244C0.860124 13.9265 0.598522 13.0138 0.58638 12.0807C0.574238 11.1477 0.811999 10.2284 1.27499 9.41821C1.73798 8.60805 2.40934 7.93655 3.2194 7.47338C3.25765 7.45071 3.29873 7.42946 3.3384 7.40963L13.9025 2.36913C15.043 1.71415 16.3374 1.37481 17.6525 1.38601C18.9677 1.39722 20.2561 1.75856 21.3853 2.43288L31.8332 7.40963C32.6576 7.86577 33.3466 8.53204 33.8301 9.34072C34.3135 10.1494 34.5743 11.0717 34.5858 12.0138ZM17.617 25.4721C15.8045 25.4761 14.0231 25.0011 12.4532 24.0951L6.25248 21.1357V24.9607C6.25332 26.473 6.73749 27.9455 7.63433 29.1632C8.53117 30.3809 9.79373 31.2801 11.2377 31.7295C13.3009 32.3219 15.4395 32.6097 17.5858 32.5838C19.7324 32.6079 21.871 32.3182 23.9339 31.7239C25.3779 31.2744 26.6405 30.3752 27.5373 29.1575C28.4341 27.9398 28.9183 26.4674 28.9191 24.955V21.1428L22.6022 24.1603C21.0859 25.0314 19.3657 25.4851 17.617 25.475V25.4721Z" fill="white"/>
</g>
<defs>
<clipPath id="clip0_176_925">
<rect width="34" height="34" fill="white" transform="translate(0.585938)"/>
</clipPath>
</defs>
</svg>
